# xmcd CD database file generated by Grip 3.1.4
# 
# Track frame offsets:
#       183
#       17175
#       34515
#       51378
#       68778
#       83465
#       101428
#       119005
#       136238
#       151110
# 
# Disc length: 2244 seconds
# 
# Revision: 3
# Processed by: cddbd v1.5.1PL0 Copyright (c) Steve Scherf et al.
# Submitted via: Grip 3.1.4
# 
DISCID=7808c20a
DTITLE=Southern Pacific - Zuma
DYEAR=1988
DGENRE=Country
TTITLE0=Midnight Highway
TTITLE1=Honey I Dare You
TTITLE2=New Shade Of Blue
TTITLE3=Dream On
TTITLE4=The Invisible Man
TTITLE5=Wheels On the Line
TTITLE6=Just Hang On
TTITLE7=All Is Lost
TTITLE8=Bail Out
TTITLE9=Trail of Tears
EXTD=more info\nMillenniumMusicProjectFormat, syntax as follows:\nTitle{Sub
EXTD=title}[info](Lyricist;Composer;Date,Artist,Location)[info]\ncorrection
EXTD=s to: windking3@yahoo.com
EXTT0=
EXTT1=
EXTT2=
EXTT3=
EXTT4=
EXTT5=
EXTT6=
EXTT7=
EXTT8=
EXTT9=
PLAYORDER=
